Jump_normalized_precision_landing01_filtered_grf
version=1
nRows=30
nColumns=37
inDegrees=yes
endheader
time		1_ground_force_vx		1_ground_force_vy		1_ground_force_vz		1_ground_force_px		1_ground_force_py		1_ground_force_pz		1_ground_torque_x		1_ground_torque_y		1_ground_torque_z		2_ground_force_vx		2_ground_force_vy		2_ground_force_vz		2_ground_force_px		2_ground_force_py		2_ground_force_pz		2_ground_torque_x		2_ground_torque_y		2_ground_torque_z		3_ground_force_vx		3_ground_force_vy		3_ground_force_vz		3_ground_force_px		3_ground_force_py		3_ground_force_pz		3_ground_torque_x		3_ground_torque_y		3_ground_torque_z		4_ground_force_vx		4_ground_force_vy		4_ground_force_vz		4_ground_force_px		4_ground_force_py		4_ground_force_pz		4_ground_torque_x		4_ground_torque_y		4_ground_torque_z		
0.042000		-0.000000		-0.000000		-0.000000		0.084058		0.000000		0.275655		0.000000		0.000000		0.000000		-0.000000		-0.000000		-0.000000		-0.193221		0.000000		0.305417		-0.000000		0.000000		-0.000000		-55.236015		548.923634		91.253478		0.381237		1.274041		1.883551		2.834718		-28.170822		-4.683139		66.605879		571.254367		101.339641		-0.352343		1.266773		1.873900		3.281315		28.142645		4.992462		
0.045308		-0.000000		-0.000000		-0.000000		0.084058		0.000000		0.275655		0.000000		0.000000		0.000000		-0.000000		-0.000000		-0.000000		-0.193221		0.000000		0.305417		-0.000000		0.000000		-0.000000		-54.834902		550.782230		90.677804		0.381237		1.274045		1.883544		2.819432		-28.319430		-4.662357		66.649036		572.617909		100.898546		-0.352351		1.266767		1.873911		3.287188		28.242011		4.976403		
0.048616		-0.000000		0.000000		-0.000000		0.084058		0.000000		0.275655		0.000000		0.000000		0.000000		-0.000000		-0.000000		-0.000000		-0.193221		0.000000		0.305417		-0.000000		0.000000		-0.000000		-54.576937		552.849112		90.118493		0.381234		1.274050		1.883540		2.810912		-28.473751		-4.641432		66.599505		573.535189		100.511057		-0.352360		1.266745		1.873908		3.289898		28.331627		4.965069		
0.051924		-0.000000		0.000000		-0.000000		0.084058		0.000000		0.275655		0.000000		-0.000000		-0.000000		-0.000000		-0.000000		-0.000000		-0.193221		0.000000		0.305417		-0.000000		0.000000		-0.000000		-54.518367		555.089183		89.597485		0.381230		1.274058		1.883543		2.811719		-28.628062		-4.620883		66.511989		574.031007		100.151673		-0.352376		1.266711		1.873890		3.291569		28.407854		4.956342		
0.055232		0.000000		0.000000		0.000000		0.084058		0.000000		0.275655		0.000000		-0.000000		-0.000000		0.000000		-0.000000		-0.000000		-0.193221		0.000000		0.305417		-0.000000		0.000000		-0.000000		-54.637948		557.386631		89.099828		0.381226		1.274065		1.883554		2.820878		-28.777065		-4.600095		66.446844		574.149709		99.779706		-0.352394		1.266670		1.873863		3.294272		28.464937		4.946833		
0.058540		0.000000		0.000000		0.000000		0.084058		0.000000		0.275655		-0.000000		-0.000000		-0.000000		0.000000		0.000000		0.000000		-0.193221		0.000000		0.305417		0.000000		-0.000000		0.000000		-54.854384		559.576998		88.579918		0.381221		1.274072		1.883572		2.834720		-28.917360		-4.577560		66.450635		573.949037		99.340489		-0.352416		1.266634		1.873832		3.299600		28.499388		4.932743		
0.061848		0.000000		0.000000		0.000000		0.084058		0.000000		0.275655		-0.000000		-0.000000		-0.000000		0.000000		0.000000		0.000000		-0.193221		0.000000		0.305417		0.000000		-0.000000		0.000000		-55.070020		561.496205		87.978109		0.381219		1.274078		1.883594		2.848901		-29.047511		-4.551313		66.536263		573.482369		98.799721		-0.352437		1.266608		1.873807		3.308039		28.512299		4.912108		
0.065157		0.000000		-0.000000		0.000000		0.084058		0.000000		0.275655		-0.000000		-0.000000		-0.000000		0.000000		0.000000		0.000000		-0.193221		0.000000		0.305417		0.000000		-0.000000		0.000000		-55.206160		563.026574		87.256867		0.381221		1.274081		1.883617		2.859942		-29.167461		-4.520322		66.687434		572.800215		98.153462		-0.352454		1.266597		1.873796		3.319204		28.509731		4.885348		
0.068465		0.000000		-0.000000		0.000000		0.084058		0.000000		0.275655		-0.000000		0.000000		0.000000		0.000000		0.000000		0.000000		-0.193221		0.000000		0.305417		0.000000		-0.000000		0.000000		-55.226152		564.115995		86.394987		0.381229		1.274082		1.883637		2.866172		-29.276955		-4.483798		66.876292		571.944936		97.409162		-0.352462		1.266604		1.873804		3.332436		28.499932		4.853884		
0.071773		-0.000000		-0.000000		-0.000000		0.084058		0.000000		0.275655		-0.000000		0.000000		0.000000		-0.000000		0.000000		0.000000		-0.193221		0.000000		0.305417		0.000000		-0.000000		0.000000		-55.140253		564.765831		85.409918		0.381239		1.274083		1.883655		2.867877		-29.373802		-4.442219		67.067367		570.949718		96.614116		-0.352465		1.266619		1.873824		3.346642		28.490221		4.821015		
0.075081		-0.000000		-0.000000		-0.000000		0.084058		0.000000		0.275655		0.000000		0.000000		0.000000		-0.000000		-0.000000		-0.000000		-0.193221		0.000000		0.305417		-0.000000		0.000000		-0.000000		-54.993338		565.021331		84.322620		0.381250		1.274084		1.883669		2.866735		-29.453869		-4.395634		67.232515		569.860898		95.782796		-0.352464		1.266637		1.873854		3.360710		28.485280		4.787834		
0.078389		-0.000000		-0.000000		-0.000000		0.084058		0.000000		0.275655		0.000000		0.000000		0.000000		-0.000000		-0.000000		-0.000000		-0.193221		0.000000		0.305417		-0.000000		0.000000		-0.000000		-54.845785		564.929745		83.157600		0.381256		1.274088		1.883684		2.865057		-29.511031		-4.344020		67.344049		568.739617		94.914192		-0.352461		1.266654		1.873889		3.373054		28.486397		4.753956		
0.081697		-0.000000		0.000000		-0.000000		0.084058		0.000000		0.275655		0.000000		0.000000		0.000000		-0.000000		-0.000000		-0.000000		-0.193221		0.000000		0.305417		-0.000000		0.000000		-0.000000		-54.748970		564.522666		81.927888		0.381256		1.274090		1.883701		2.864800		-29.539270		-4.286966		67.380957		567.660256		93.994249		-0.352460		1.266666		1.873924		3.382014		28.492245		4.717799		
0.085005		-0.000000		0.000000		-0.000000		0.084058		0.000000		0.275655		0.000000		-0.000000		-0.000000		-0.000000		-0.000000		-0.000000		-0.193221		0.000000		0.305417		-0.000000		0.000000		-0.000000		-54.732101		563.799179		80.638074		0.381246		1.274092		1.883722		2.867208		-29.535301		-4.224323		67.335203		566.693917		93.004771		-0.352461		1.266676		1.873959		3.386537		28.501139		4.677555		
0.088313		0.000000		0.000000		0.000000		0.084058		0.000000		0.275655		0.000000		-0.000000		-0.000000		0.000000		-0.000000		-0.000000		-0.193221		0.000000		0.305417		-0.000000		0.000000		-0.000000		-54.794750		562.720790		79.302295		0.381230		1.274088		1.883750		2.872539		-29.499863		-4.157314		67.214548		565.890878		91.944006		-0.352467		1.266685		1.873991		3.386723		28.513402		4.632759		
0.091621		0.000000		0.000000		0.000001		0.084058		0.000000		0.275655		-0.000000		-0.000000		-0.000000		0.000000		0.000000		0.000000		-0.193221		0.000000		0.305417		0.000000		-0.000000		0.000000		-54.896819		561.245318		77.919041		0.381215		1.274081		1.883782		2.879499		-29.438963		-4.087082		67.041696		565.267717		90.817022		-0.352479		1.266692		1.874016		3.383959		28.532138		4.584029		
0.094929		0.000000		0.000000		0.000002		0.084058		0.000000		0.275655		-0.000000		-0.000000		-0.000000		0.000000		0.000000		0.000000		-0.193221		0.000000		0.305417		0.000000		-0.000000		0.000000		-54.979895		559.342642		76.508052		0.381204		1.274068		1.883814		2.885970		-29.360665		-4.016013		66.839161		564.815846		89.636082		-0.352498		1.266699		1.874036		3.379928		28.561653		4.532724		
0.098237		0.000000		-0.000000		0.000001		0.084058		0.000000		0.275655		-0.000000		-0.000000		-0.000000		0.000000		0.000000		0.000000		-0.193221		0.000000		0.305417		0.000000		-0.000000		0.000000		-54.990478		557.029017		75.081967		0.381204		1.274056		1.883846		2.889796		-29.272344		-3.945620		66.622104		564.517042		88.402132		-0.352522		1.266701		1.874048		3.375869		28.605157		4.479504		
0.101545		-0.000000		-0.000000		0.000000		0.084058		0.000000		0.275655		-0.000000		0.000000		0.000000		0.000000		0.000000		0.000000		-0.193221		0.000000		0.305417		0.000000		-0.000000		0.000000		-54.904559		554.369282		73.658475		0.381216		1.274046		1.883876		2.889761		-29.177812		-3.876826		66.390831		564.354036		87.100484		-0.352548		1.266697		1.874059		3.371935		28.663078		4.423762		
0.104854		-0.000000		-0.000000		-0.000002		0.084058		0.000000		0.275655		-0.000000		0.000000		0.000000		-0.000000		0.000000		0.000000		-0.193221		0.000000		0.305417		0.000000		-0.000000		-0.000000		-54.723816		551.451298		72.243308		0.381236		1.274041		1.883907		2.885468		-29.076834		-3.809233		66.134888		564.310175		85.699142		-0.352569		1.266689		1.874074		3.367411		28.733158		4.363569		
0.108162		-0.000001		-0.000000		-0.000004		0.084058		0.000000		0.275655		0.000000		0.000000		0.000000		-0.000000		-0.000000		-0.000000		-0.193221		0.000000		0.305417		-0.000000		0.000000		-0.000000		-54.465610		548.368747		70.829034		0.381259		1.274043		1.883936		2.877088		-28.966998		-3.741468		65.839591		564.358690		84.147008		-0.352575		1.266680		1.874101		3.361201		28.811282		4.295819		
0.111470		-0.000001		-0.000000		-0.000006		0.084058		0.000000		0.275655		0.000001		0.000000		0.000000		-0.000000		-0.000000		-0.000000		-0.193221		0.000000		0.305417		-0.000000		0.000000		-0.000000		-54.149460		545.196340		69.420371		0.381278		1.274050		1.883966		2.865004		-28.845894		-3.672975		65.487877		564.456778		82.419868		-0.352560		1.266674		1.874144		3.352170		28.893211		4.218878		
0.114778		-0.000000		0.000001		-0.000005		0.084058		0.000000		0.275655		0.000001		0.000000		0.000000		-0.000000		-0.000000		-0.000000		-0.193221		0.000000		0.305417		-0.000000		0.000000		-0.000000		-53.785716		541.983362		68.007223		0.381290		1.274060		1.883993		2.849385		-28.712444		-3.602792		65.059878		564.555283		80.520521		-0.352528		1.266674		1.874200		3.339235		28.976122		4.132760		
0.118086		0.000000		0.000001		-0.000001		0.084058		0.000000		0.275655		0.000001		-0.000000		-0.000000		-0.000000		-0.000000		-0.000000		-0.193221		0.000000		0.305417		-0.000000		0.000000		-0.000000		-53.378343		538.745045		66.566383		0.381292		1.274068		1.884020		2.830390		-28.566996		-3.529687		64.535003		564.613183		78.487087		-0.352481		1.266679		1.874266		3.321452		29.059199		4.039529		
0.121394		0.000001		0.000002		0.000007		0.084058		0.000000		0.275655		0.000000		-0.000001		-0.000000		0.000000		0.000000		-0.000000		-0.193221		0.000000		0.305417		-0.000000		-0.000000		0.000000		-52.930956		535.467422		65.050304		0.381287		1.274073		1.884045		2.808388		-28.410599		-3.451411		63.900545		564.602096		76.389993		-0.352431		1.266685		1.874330		3.298375		29.143251		3.943046		
0.124702		0.000002		0.000001		0.000015		0.084058		0.000000		0.275655		-0.000001		-0.000001		-0.000000		0.000000		0.000000		0.000000		-0.193221		0.000000		0.305417		0.000000		-0.000000		0.000000		-52.451696		532.126230		63.415493		0.381280		1.274073		1.884072		2.784137		-28.245273		-3.366096		63.164689		564.507768		74.293473		-0.352390		1.266688		1.874384		3.270620		29.229795		3.846859		
0.128010		0.000003		0.000000		0.000021		0.084058		0.000000		0.275655		-0.000003		-0.000001		-0.000000		0.000000		0.000000		0.000000		-0.193221		0.000000		0.305417		0.000000		-0.000000		0.000000		-51.944721		528.711916		61.651276		0.381273		1.274071		1.884099		2.758292		-28.074879		-3.273715		62.360172		564.325225		72.253770		-0.352364		1.266687		1.874421		3.239921		29.319504		3.753943		
0.131318		0.000002		-0.000002		0.000017		0.084058		0.000000		0.275655		-0.000004		-0.000000		-0.000000		0.000000		0.000000		0.000000		-0.193221		0.000000		0.305417		0.000000		-0.000000		0.000000		-51.402492		525.245628		59.784461		0.381269		1.274068		1.884127		2.730986		-27.906014		-3.176316		61.535897		564.061916		70.280231		-0.352352		1.266682		1.874441		3.208662		29.411849		3.664616		
0.134626		-0.000001		-0.000005		0.000000		0.084058		0.000000		0.275655		-0.000003		0.000001		0.000000		0.000000		0.000000		0.000000		-0.193221		0.000000		0.305417		0.000000		-0.000000		0.000000		-50.806048		521.780376		57.869025		0.381268		1.274067		1.884154		2.701801		-27.747621		-3.077402		60.734471		563.738231		68.353305		-0.352350		1.266677		1.874452		3.178803		29.505696		3.577567		
0.137934		-0.000005		-0.000006		-0.000028		0.084058		0.000000		0.275655		-0.000000		0.000002		0.000001		-0.000000		-0.000000		0.000000		-0.193221		0.000000		0.305417		-0.000000		0.000000		-0.000000		-50.133900		518.381958		55.950445		0.381269		1.274072		1.884182		2.670119		-27.608899		-2.979907		59.970958		563.378418		66.444145		-0.352347		1.266674		1.874463		3.151003		29.601124		3.491119		
